<svg xml:space="preserve" style="enable-background:new 0 0 144 136;" viewBox="0 0 144 136" y="0px" x="0px" xmlns:xlink="http://www.w3.org/1999/xlink" xmlns="http://www.w3.org/2000/svg" id="Layer_1" version="1.1">
<style type="text/css">
	.st0{fill:#E7E3DD;}
</style>
<g>
	<path d="M43.7,105.6c-0.8-3.8-19.2-95.2-21.9-102.8c0-0.1-0.1-0.3-0.2-0.4c-2.9-2.9-8.5-1.7-12.7,0.5
		C7.9,3.4,7,4,6.1,4.6c-0.2-0.1-0.4-0.1-0.5,0C5,4.8,4.7,5.3,4.8,5.8v0.3c-0.1,0.2-0.1,0.4,0,0.6C4.9,7,5,7.2,5.2,7.4
		c13.9,58.3,14.7,62.7,20.4,95l1.1,6l0,0c0,0.1,0,0.1,0,0.2l12,17.1l0,0c0.2,0.2,0.4,0.4,0.7,0.4l0,0l1.9-0.2c0.5,0,0.8-0.4,0.8-0.9
		l1.3-19.2L43.7,105.6z M7,6.2c2.4-1.9,5.3-3.2,8.3-3.8c1.7-0.4,3.4-0.1,4.9,0.9c2.7,8.2,18.8,88.3,21.4,100.7l-0.6,0.2l-0.5,0.2
		h-0.2c-0.7,0.3-1.5,0.5-2.2,0.6c-1.5,0.2-3.1,0.5-4.6,0.9c-1.4,0.9-3,1.3-4.7,1.2c0,0,0,0-0.2,0l-1-5.8C21.7,69.5,21,65.1,7,6.2z
		 M40.6,124H40l-10.3-14.4c1.2-0.1,2.4-0.5,3.5-1.1c0.8-0.4,1.6-0.6,2.4-0.8l2.4-0.4c0.9-0.1,1.7-0.4,2.5-0.7h0.5l0,0h0.5L40.6,124z" class="st0"></path>
	<path d="M140.7,124.8c-6.2,5.1-14.2,5.1-21.7,3.8c-7.4-1.5-14.3-4.6-20.4-9.1c-4.8-4-11.3-5.3-17.2-3.3
		c-5.6,2.7-10.7,6.3-15.1,10.6c-4.9,4-16.6,9.9-21.6,3.2c-0.7-0.9-2.4,0-1.6,1c4.1,5.5,11.1,3.8,16.6,1.7
		c6.6-2.6,11.1-7.8,16.8-11.8c3-2.2,6.5-3.5,10.2-3.8c4.1,0.1,8,1.6,11.1,4.3c6.4,4.5,13.7,7.6,21.4,9c7.8,2.1,16.1,0.6,22.6-4.2
		C143,125.4,141.7,124.1,140.7,124.8z" class="st0"></path>
</g>
</svg>
