<svg xml:space="preserve" style="enable-background:new 0 0 144 136;" viewBox="0 0 144 136" y="0px" x="0px" xmlns:xlink="http://www.w3.org/1999/xlink" xmlns="http://www.w3.org/2000/svg" id="Layer_1" version="1.1">
<style type="text/css">
	.st0{fill:#E7E3DD;}
</style>
<g>
	<path d="M44.1,104.8c-0.7-3.7-18.6-94.3-21.3-101.9c0-0.1-0.1-0.2-0.2-0.3C19.3-0.8,11.9,1.2,7.7,3.2
		C5,4.6,4.7,5.5,4.8,6.1c0.1,0.5,0.5,0.8,1,0.7l0.3-0.2C14,36.1,23.6,86.8,27.3,107.4l0,0c0,0,0,0,0,0.3l11.2,17.1l0,0
		c0.2,0.2,0.4,0.3,0.7,0.3l0,0H41c0.4-0.1,0.7-0.4,0.8-0.8l1.9-19.3C43.9,105,44,104.9,44.1,104.8z M29,106.8
		C25.3,85.9,15.5,34.6,7.8,5.3l0,0c2.5-1.4,5.2-2.3,8-2.7c1.9-0.4,3.9,0,5.5,1c2.7,8.3,19.1,91,21,100.6l-5.7,1.2
		c-1.2,0.2-2.3,0.4-3.4,0.7c-1.2,0.5-2.4,0.7-3.7,0.7H29z M40.6,123.4h-0.6l-9.8-14.9c1.1,0,2.1-0.2,3.2-0.6
		c1.1-0.3,2.2-0.5,3.4-0.7l5.6-1.1L40.6,123.4z" class="st0"></path>
	<path d="M140,125.5c-6.2,5.2-14.4,4.8-21.9,3.3c-4.1-0.7-8-1.9-11.8-3.5c-3.2-1.5-6.2-3.5-8.9-5.9
		c-2.5-2.4-5.4-4.2-8.6-5.5c-3-0.9-6.2-0.6-9.1,0.6c-5.9,2.4-9.7,8-14.5,12c-2.6,2.6-5.8,4.7-9.2,6.1c-2,0.5-4,0.3-5.9-0.4
		c-1.9-0.6-3.6-1.8-4.9-3.3c-0.7-0.9-2.2,0-1.5,0.9l0,0c2.2,2.7,5.4,4.4,8.9,4.8c3.5,0.2,7-1,9.6-3.4c2.7-2,5.4-4.2,7.8-6.6
		c2.3-2.4,4.8-4.7,7.5-6.7c2.6-2,5.8-3,9-2.8c3.5,0.7,6.8,2.4,9.3,5c2.7,2.5,5.8,4.6,9.1,6.3c3.8,1.7,7.7,2.9,11.7,3.7
		c4.3,1.1,8.7,1.5,13.1,1.2c4.3-0.4,8.4-2,11.7-4.8C142.2,126,140.9,124.8,140,125.5z" class="st0"></path>
</g>
</svg>
