<svg xml:space="preserve" style="enable-background:new 0 0 144 136;" viewBox="0 0 144 136" y="0px" x="0px" xmlns:xlink="http://www.w3.org/1999/xlink" xmlns="http://www.w3.org/2000/svg" id="Layer_1" version="1.1">
<style type="text/css">
	.st0{fill:#E7E3DD;}
</style>
<g>
	<path d="M143,90.7c-3.3-15.1-17.8-26.3-32.5-29.4c-1.4-0.3-2,1.9-0.6,2.3h0.7c-2.8,0-5.7,0.3-8.4,1
		c-0.3-22.1-13.1-42.1-33-51.7c-9.1-4.3-19.4-5.5-29.3-3.7c-6.3,1.6-12.1,4.6-17.2,8.7C8.8,27.8,0.4,43.8,0.3,61
		c0.8,19.5,10.1,37.7,25.5,49.7c6.4,4.7,14.3,7.1,22.2,6.9c11.7,0.1,23.2-2.6,33.6-7.9c1.3-0.7,0-2.7-1.2-2
		c-9.1,4.7-19.2,7.2-29.5,7.6c-6.6,0.6-13.1-0.6-19.1-3.4c-16-8.5-25-26.2-28.3-43.3C0.7,51.9,6.7,35,19.3,23.9
		c4.8-4.6,10.4-8.3,16.6-10.8c7.8-2.7,16.2-3,24.1-0.7c24.1,6.1,39.2,29,39.9,53.1C92,68,85.6,73.6,82,81
		c-5.9,12.5-2.9,27.4,7.3,36.7c9.8,8.8,23.8,11,35.8,5.5C138,117.9,145.4,104.4,143,90.7z M128.7,118.5c-10.1,6.8-23.3,7-33.6,0.4
		c-11.1-7-16.1-20.5-12.4-33c4.3-13.3,17.5-21.7,31.4-19.8c0.8,0,1.2-0.6,1-1.3c10,3.3,18.3,10.4,23.2,19.6
		C144.2,96.7,140.1,111.3,128.7,118.5L128.7,118.5z" class="st0"></path>
	<path d="M104.7,76.3c-7.6,1.6-12.9,8.5-12.4,16.2c0,1.5,2.5,1.5,2.3,0c-0.4-6.7,4.2-12.6,10.7-13.9
		C106.8,78.3,106.1,76,104.7,76.3z" class="st0"></path>
	<path d="M117.8,40c5.4,1.8,11.2-0.1,14.6-4.6c3.4-5.2,3.4-11.9,0-17.2c0.1-0.2,0.1-0.4,0-0.6c-1.4-2.6-3.8-4.5-6.7-5.2
		c-2.4-0.4-4.9-0.2-7.3,0.5c-7.5,2.6-11.5,10.8-8.9,18.4C110.9,35.3,113.9,38.5,117.8,40L117.8,40z M117,16.1c2.1-1.1,4.5-1.6,7-1.4
		c1.9,0.1,3.7,0.9,5,2.3c0,0,0,0.3,0,0.5c3.5,4.2,4.5,10,2.5,15c-2.2,4.2-6.7,6.5-11.4,5.8c-4.2-1-7.5-4.2-8.7-8.4
		C109.9,24.6,112.2,18.8,117,16.1z" class="st0"></path>
	<path d="M33.7,36c1.2-0.8,0-2.8-1.2-2c-9.3,6.6-18.2,18-15.2,30.2c0.3,1.4,2.6,0.8,2.2-0.6C16.8,52.4,25.2,42,33.7,36z" class="st0"></path>
</g>
</svg>
