<svg xml:space="preserve" style="enable-background:new 0 0 144 136;" viewBox="0 0 144 136" y="0px" x="0px" xmlns:xlink="http://www.w3.org/1999/xlink" xmlns="http://www.w3.org/2000/svg" id="Layer_1" version="1.1">
<style type="text/css">
	.st0{fill:#E7E3DD;}
</style>
<g>
	<path d="M143.5,91.7c-0.7-6.4-3.3-12.4-7.5-17.2c-4.3-4.7-9.6-8.4-15.6-10.8c-1.6-0.7-3.3-1.2-4.7-1.8
		s-1.9,1.7-0.6,2.2h0.7l0,0c-4-0.5-8.2-0.3-12.1,0.7c-1.8-18.1-9-36.6-24.3-47.4c-8.3-5.9-18.2-9-28.4-8.9
		c-9.4,0.5-18.5,3.6-26.1,9.1C19,21.4,14,26.2,10.1,31.8c-6.3,9.1-9.6,20-9.5,31.1C0.8,72.3,3,81.5,7,89.9c3.1,7,8,13.1,14.2,17.6
		c7.8,4.9,16.6,7.9,25.8,8.6c9.5,1.1,19.2-0.1,28.1-3.5c2.1-0.9,4.2-1.8,6.2-3c0.3-0.2,0.5-0.5,0.5-0.9c1.5,3.8,3.7,7.2,6.5,10.1
		c9.9,8.9,24.1,10.9,36,5.2c9.1-4.1,15.9-12,18.6-21.6C143.8,98.9,144,95.2,143.5,91.7z M80.2,107.6c-7.9,4.4-16.9,6.7-26,6.7
		c-9.1,0.2-18.2-1.6-26.5-5.4c-6.8-3.2-12.5-8.4-16.3-14.9c-4.3-7.3-7.2-15.3-8.4-23.7C1.6,60,3,49.7,7.3,40.4
		c3.2-6.7,7.9-12.6,13.6-17.3c6.5-5.6,14.3-9.6,22.6-11.5c9.9-1.9,20.1-0.3,28.9,4.5c16.2,8.3,25,25.2,28,42.6
		c0.4,2.1,0.7,4.4,0.9,6.6c-5.9,1.6-11.2,4.9-15.2,9.5c-1.2,1.4-2.3,2.9-3.3,4.5c-0.7,1.4-1.3,2.9-1.7,4.5
		c-2.4,7.9-2.2,16.3,0.5,24.1C81.3,107.4,80.7,107.3,80.2,107.6z M139.4,106.3c-2.5,5.6-6.6,10.3-11.8,13.5
		c-10.4,6.7-23.8,6.7-34.2,0c-9.4-7.4-13.7-19.6-11.1-31.3c0.4-2.9,1.2-5.6,2.4-8.2c1.7-3,3.9-5.6,6.6-7.7
		c5.4-4.2,12.1-6.5,18.9-6.5c1.8,0,3.6,0.1,5.4,0.3c1.2,0,1.4-1.4,0.5-2c11,3.7,21.2,11,24.4,22.6c0.8,3.1,1.2,6.3,1.1,9.5
		C141.6,99.9,140.8,103.3,139.4,106.3z" class="st0"></path>
	<path d="M106,76.7c-3.4,0.7-6.5,2.6-8.6,5.4c-2.3,3.7-3,8.1-2,12.3c0.2,1.4,2.4,0.9,2.2-0.6l0,0
		c-0.9-3.6-0.2-7.5,1.8-10.6c1.8-2.3,4.4-3.9,7.2-4.5C108,78.6,107.4,76.4,106,76.7z" class="st0"></path>
	<path d="M113.7,37.1c1.9,2.2,4.5,3.6,7.4,3.8c6,0.9,12-2.1,14.9-7.4c0.7-1.9,0.9-4,0.7-6c0-2-0.3-3.9-0.8-5.8
		c-0.4-1.1-1-2.2-1.6-3.2c-2.7-6-9.8-8.8-15.9-6.2c-0.7,0.3-1.4,0.7-2.1,1.1c-4.9,3.5-7.3,9.6-6.2,15.6
		C110.6,32,111.8,34.8,113.7,37.1z M115.5,17c2.5-2.5,6-3.7,9.5-3.3c2.1,0.4,4,1.4,5.5,2.9c-0.1,0.2-0.1,0.5,0,0.7l0,0
		c1.1,1.2,2.1,2.5,2.9,3.9c1,2.9,1.4,5.9,1.1,8.9c-1,5.2-5.6,8.8-10.8,8.6c-2.4,0.3-4.8-0.3-6.8-1.6c-1.8-1.6-3.1-3.7-3.7-6
		C111.4,26.3,112.3,21,115.5,17z" class="st0"></path>
	<path d="M33.3,34.9c-10.8,5.8-17,17.7-15.6,29.8c0.1,0.6,0.7,1,1.3,0.9c0.4-0.1,0.8-0.4,0.9-0.9l0,0
		c-1.4-11.4,4.4-22.5,14.5-27.9C35.8,36.2,34.6,34.3,33.3,34.9z" class="st0"></path>
</g>
</svg>
