<svg xml:space="preserve" style="enable-background:new 0 0 144 136;" viewBox="0 0 144 136" y="0px" x="0px" xmlns:xlink="http://www.w3.org/1999/xlink" xmlns="http://www.w3.org/2000/svg" id="Layer_1" version="1.1">
<style type="text/css">
	.st0{fill:#E7E3DD;}
</style>
<g>
	<path d="M143,35.3c-0.6-0.3-1.3,0-1.6,0.6c0,0,0,0,0,0.1c-1.2,3.5-2,7.2-2.4,10.9c-0.4,3.5-1.1,7-2.2,10.3
		c-0.2,0.6-0.4,0.9-0.6,1c-0.1,0-0.3,0-1.1-0.6h0.3c0.7-0.1,1.1-0.8,1-1.4C131.5,32.3,120,0.6,72.6,0.4h-0.3
		C39.9-0.5,12,23.2,7.6,55.3c0,0.7,0.6,1.2,1.2,1.2c0.7,0,1.2-0.6,1.2-1.2C14.5,24.5,41.3,2,72.3,2.9h0.3c21.8,0,52,5.7,61.4,53.8
		l0,0c-2.4-2.1-4.6-4.3-6.7-6.7c-2.4-2.8-5-5.4-7.9-7.7c-0.4-0.5-1.2-0.5-1.7-0.1c0,0,0,0-0.1,0.1c-0.5,0.5-0.5,1.3,0,1.7
		c2.7,2.3,5.3,4.7,7.6,7.4c2.4,2.8,5,5.4,7.9,7.8c0.8,0.7,1.7,1.1,2.8,1.2h0.9c1-0.5,1.7-1.4,2-2.4c1.2-3.5,2-7.2,2.4-10.9
		c0.4-3.5,1.1-6.9,2.2-10.3C143.7,36.3,143.5,35.6,143,35.3z" class="st0"></path>
	<path d="M138.5,81.2c-0.6-0.1-1.3,0.3-1.4,0.9c0,0,0,0.1,0,0.1c-8.1,42-46.4,49.5-62.5,50.7
		c-43.3,3.3-57.1-31.4-61.4-52.7c2.8,2.5,5.4,5.1,7.9,8c2.7,3.2,5.7,6.1,8.9,8.7c0.5,0.5,1.3,0.5,1.7,0c0.5-0.4,0.5-1.2,0.1-1.7
		c0,0,0,0-0.1-0.1c-3.1-2.5-6-5.3-8.6-8.4c-2.7-3.2-5.7-6.1-8.9-8.7c-1-0.9-2.4-1.3-3.8-0.9c-0.9,0.5-1.6,1.4-1.9,2.5
		c-1,3-2.5,7.7-3.9,12.2s-2.8,9.3-3.8,12.2c-0.2,0.6,0.1,1.4,0.7,1.6h0.4c0.5,0,1-0.3,1.2-0.8c1.1-3,2.5-7.7,3.9-12.3
		c1.4-4.6,2.7-9.1,3.8-12l0,0c9.3,46.8,38.5,55.2,58.4,55.2c1.9,0,3.8,0,5.6,0c50.2-4.1,62-38.3,65-52.8c0.2-0.7-0.3-1.4-1-1.5
		C138.7,81.2,138.6,81.2,138.5,81.2z M11.1,79.1L11.1,79.1L11.1,79.1z" class="st0"></path>
</g>
</svg>
