<svg xml:space="preserve" style="enable-background:new 0 0 144 136;" viewBox="0 0 144 136" y="0px" x="0px" xmlns:xlink="http://www.w3.org/1999/xlink" xmlns="http://www.w3.org/2000/svg" id="Layer_1" version="1.1">
<style type="text/css">
	.st0{fill:#E7E3DD;}
</style>
<g>
	<path d="M10.2,56.6c0.7,0.1,1.2-0.4,1.3-1.1c0,0,0,0,0,0c2-24.1,19.4-44.2,43-49.6c16.3-4.9,33.7-4.2,49.6,1.8
		c25.2,11.1,30.8,34.7,31.9,48c0.1,0.6,0.6,1.1,1.2,1.1l0,0c0.7-0.1,1.1-0.6,1.1-1.3c0,0,0,0,0,0c-1.2-13.7-7.1-38.5-33.4-50
		c-16.3-6.3-34.3-7-51.1-1.9C29.3,9.4,11.3,30.4,9.3,55.5C9.3,56.1,9.7,56.5,10.2,56.6z" class="st0"></path>
	<path d="M142.3,35.5c-0.3-0.6-1-0.8-1.6-0.5c-0.6,0.2-0.8,0.9-0.6,1.4c0,0,0,0.1,0.1,0.1c2.7,5.8,0,21.2-2,22.3
		c-1.1,0-4.6-4.4-6.9-7.2c-2.6-3.5-5.5-6.7-8.7-9.6c-0.5-0.4-1.2-0.4-1.6,0c-0.5,0.4-0.5,1.2,0,1.6c0,0,0,0,0,0
		c3.2,2.8,6.2,6,8.7,9.4c4,5.2,6.4,8.3,8.5,8.3c0.2,0.1,0.4,0.1,0.6,0c0.9-0.2,1.6-1.1,2.3-2.6C143.3,53.4,144.8,40.6,142.3,35.5z" class="st0"></path>
	<path d="M135.8,81.1c-0.6-0.1-1.2,0.3-1.3,0.9c0,0,0,0,0,0c-4.2,22-14.6,47.8-56.5,51.1c-13.7,1-34.7-5-45-16.9
		c-9.2-11-16.5-23.5-21.6-37c-0.1-0.2-0.2-0.3-0.4-0.4c4.3,0.5,12.4,8.9,14.9,15.6c0.2,0.6,0.9,0.9,1.5,0.7c0,0,0,0,0,0
		c0.6-0.3,0.9-0.9,0.6-1.5c-2.5-7.5-11.9-17.2-17.4-17.2l0,0c-4.3,0-5.9,7.4-7.7,15.8c-0.7,3.4-1.5,6.9-2.4,9.9
		c-0.2,0.6,0.1,1.2,0.6,1.4c0,0,0.1,0,0.1,0h0.3c0.5,0,1-0.4,1.1-0.8c0.9-3.1,1.7-6.6,2.5-9.9c0.6-4.6,2.1-9,4.2-13.1
		c-0.1,0.2-0.1,0.4,0,0.5c5.2,13.7,12.6,26.4,22,37.6c9.9,11.4,29.5,17.8,43.7,17.8c1.2,0,2.2,0,3.3,0c44.1-3.4,54.5-31.9,58.5-53
		c0.2-0.6-0.2-1.3-0.9-1.4C135.9,81.1,135.9,81.1,135.8,81.1z" class="st0"></path>
</g>
</svg>
