<svg xml:space="preserve" style="enable-background:new 0 0 144 136;" viewBox="0 0 144 136" y="0px" x="0px" xmlns:xlink="http://www.w3.org/1999/xlink" xmlns="http://www.w3.org/2000/svg" id="Layer_1" version="1.1">
<style type="text/css">
	.st0{fill:#E7E3DD;}
</style>
<path d="M138.6,2.1c-22.1-2-47.6-3.4-71.9,5.5C50.8,13.5,28.4,23.3,17,40.3c-10.5,16.8-10.5,38.1,0,55
	c0.3,0.5,0.9,0.7,1.5,0.5c0,0,0.1,0,0.1-0.1c0.5-0.3,0.7-1,0.4-1.6c0,0,0,0,0,0C9,78,9,57.7,19,41.6c11.2-16.4,33.3-26,48.8-31.8
	c22.6-8.3,46.5-7.5,67.6-5.6c-13.2,9.9-19.6,24.4-27,41.1c-5,12.4-11.2,24.3-18.4,35.6c-18.1,26.6-51,25.5-65.5,21.4
	c2.6-7.1,5.8-14,9.7-20.5c9.9-16.6,19-30.2,33.7-41.8c0.5-0.4,0.5-1.2,0.1-1.7c-0.4-0.4-1-0.5-1.5-0.2C51.5,50,42.4,63.8,32.2,80.6
	c-4,6.6-7.3,13.7-9.9,21c-1.2-0.4-2.4-1-3.6-1.6c-0.5-0.4-1.2-0.2-1.5,0.2c0,0,0,0.1-0.1,0.1c-0.4,0.6-0.2,1.3,0.3,1.6
	c1.3,0.7,2.6,1.4,3.9,1.9c-1.9,5.3-3.6,10.6-5.3,16.2c-1.4,4.6-3,9.4-4.6,14.3c-0.2,0.6,0.1,1.3,0.7,1.5c0,0,0,0,0,0h0.4
	c0.5,0,1-0.3,1.1-0.8c1.7-5,3.2-9.7,4.7-14.4c1.7-5.5,3.4-10.8,5.4-16.1c5.7,1.6,11.6,2.4,17.5,2.3c20,0.8,39-8.6,50.6-24.9
	c7.3-11.4,13.5-23.4,18.6-36c7.7-17.5,14.3-32.6,28.8-41.9c0.4-0.3,0.6-0.8,0.5-1.3C139.4,2.4,139,2.1,138.6,2.1z" class="st0"></path>
</svg>
