<svg xml:space="preserve" style="enable-background:new 0 0 144 136;" viewBox="0 0 144 136" y="0px" x="0px" xmlns:xlink="http://www.w3.org/1999/xlink" xmlns="http://www.w3.org/2000/svg" id="Layer_1" version="1.1">
<style type="text/css">
	.st0{fill:#E7E3DD;}
</style>
<path d="M136.3,1.3c-24.1-2.2-48.4,1.1-71.2,9.4c-20.7,7.7-36,18.5-45.4,32.2c-11.7,16.9-13.3,38.6-4.1,54
	c0.3,0.6,1.1,0.8,1.7,0.4c0.5-0.3,0.8-0.9,0.6-1.5c-8.7-14.6-7.1-35.2,4-51.3C31.1,31.2,46,20.7,66.1,13.2
	C87.6,5.3,110.5,2,133.4,3.7c-11.2,10.2-16.7,24.8-22,39c-3.4,10.4-8.1,20.4-13.9,29.7c-11.6,15.9-28.7,26.9-47.9,31.1
	c-8.4,2.4-17.3,2.5-25.8,0.3c3.2-7.3,6.9-14.4,11-21.2c9.5-16.7,22.9-30.9,39-41.3c0.6-0.4,0.7-1.1,0.4-1.7
	c-0.4-0.6-1.1-0.7-1.7-0.4C56,49.7,42.3,64.1,32.5,81.2c-4.1,7-7.9,14.2-11.2,21.6c-1.4-0.6-2.8-1.3-4.1-2.1
	c-0.6-0.3-1.3-0.2-1.7,0.4c-0.3,0.6-0.2,1.3,0.4,1.7c1.4,0.9,2.9,1.7,4.5,2.3c-4.4,10.2-8.1,20.2-11.2,29.3
	c-0.2,0.6,0.2,1.3,0.8,1.5h0.4c0.5,0,1-0.3,1.1-0.8c3.1-9.2,6.8-19.2,11.2-29.3c3.9,1.2,8,1.9,12.1,1.9c5.1-0.1,10.2-0.7,15.2-2
	c19.8-4.3,37.3-15.7,49.3-32.1c5.9-9.4,10.7-19.6,14.1-30.1c5.8-15.5,11.3-30.1,23.5-39.9c0.4-0.3,0.5-0.8,0.4-1.3
	C137.3,1.7,136.8,1.3,136.3,1.3z" class="st0"></path>
</svg>
