<svg xml:space="preserve" style="enable-background:new 0 0 144 136;" viewBox="0 0 144 136" y="0px" x="0px" xmlns:xlink="http://www.w3.org/1999/xlink" xmlns="http://www.w3.org/2000/svg" id="Layer_1" version="1.1">
<style type="text/css">
	.st0{fill:#E7E3DD;}
</style>
<path d="M143,71.2c-2.3-25.6-16.7-48-36.8-57c-9.9-4-20.5-6.1-31.2-6.1c0,0,0.2-0.3,0.2-0.5c0-1.1,0-2.3,0-3.4
	s0-2.1,0-3.2c0-0.2,0-0.3-0.1-0.4s-0.2-0.3-0.3-0.4C74.7,0.1,74.6,0,74.4,0c0,0-0.1,0-0.3,0c-0.2,0-0.3,0-0.4,0.1s-0.3,0.2-0.4,0.3
	c-0.1,0.1-0.2,0.2-0.2,0.4C73,0.9,73,1,73,1.2c0,1.1,0,2.1,0,3.1s0,2.3,0,3.4c0,0,0,0.2,0,0.4h-3.6c-12-0.2-24,2.5-34.7,8
	C11.7,28.3,4.5,49,0.3,69.6C0.1,69.9,0,70.2,0,70.5s0.2,0.6,0.4,0.8c0.2,0.2,0.5,0.3,0.8,0.3s0.6-0.2,0.8-0.4c1.7-2.2,3.9-4,6.4-5.4
	c2.5-1.3,5.2-2.1,8-2.3c8.4,0,16.4,3.3,22.3,9.2c1.4,1.6,3.4,2.7,5.6,3c0.6,0,1.1-0.1,1.6-0.4c0.9-0.4,1.6-1,2.1-1.8l0.4-0.5
	c3.3-4.2,7.5-7.7,12.2-10.2c4.8-2.5,10-4,15.3-4.3c1.8,18.2,2.5,36.4,2.3,54.7c-0.2,11.7-5.6,18.8-10.6,19.5c-3.4,0.5-6.2-2-7.8-6.9
	c0-0.1-0.1-0.3-0.2-0.4c-0.1-0.1-0.2-0.2-0.3-0.3c-0.1-0.1-0.3-0.1-0.4-0.1c-0.2,0-0.3,0-0.5,0.1c-0.3,0.1-0.5,0.3-0.7,0.6
	c-0.1,0.3-0.2,0.6-0.1,0.9c1.7,5.4,5.1,8.6,9.2,8.6h1.1c6-0.9,12.3-8.6,12.6-21.7c0.3-18.3-0.5-36.6-2.3-54.9
	c5.7,0.1,11.2,1.4,16.3,3.9c5.1,2.5,9.6,6.1,13.1,10.5c0.1,0.1,0.3,0.2,0.4,0.3c0.2,0.1,0.3,0.1,0.5,0.1s0.3,0,0.5-0.1
	s0.3-0.2,0.4-0.3c1.9-2.2,4.3-4,7-5.3c2.7-1.2,5.6-1.8,8.6-1.8c3-0.1,6,0.5,8.8,1.8c2.8,1.2,5.2,3.1,7.2,5.4
	c0.2,0.2,0.5,0.3,0.8,0.3s0.6-0.1,0.8-0.3c0.1-0.1,0.2-0.2,0.3-0.3s0.1-0.3,0.2-0.4c0-0.2,0-0.3,0-0.5
	C143.2,71.5,143.1,71.4,143,71.2L143,71.2z M125.2,63.2c-3.1-0.1-6.2,0.5-9.1,1.7s-5.5,2.9-7.7,5.2c-3.8-4.5-8.6-8.2-14.1-10.6
	C88.9,57,83,55.8,77.1,55.9C71.2,56,65.3,57.5,60,60.1c-5.3,2.7-10,6.5-13.6,11.2L46,71.9c-0.3,0.5-0.7,0.8-1.2,1.1
	c-1.4,0.6-3-0.7-4.6-2.3c-3.2-3.1-6.9-5.6-11.1-7.2c-4.1-1.7-8.6-2.5-13-2.4c-4.8,0.4-9.4,2.3-13,5.5C7.3,47.4,14.8,29,35.6,17.8
	c10.3-5.2,21.6-7.8,33.2-7.7h0.5c12.2-0.5,24.4,1.6,35.8,6c18.7,8.4,32.2,28.7,35.3,52.4C136.1,65,130.7,63.2,125.2,63.2L125.2,63.2
	z" class="st0"></path>
</svg>
