<svg xml:space="preserve" style="enable-background:new 0 0 144 136;" viewBox="0 0 144 136" y="0px" x="0px" xmlns:xlink="http://www.w3.org/1999/xlink" xmlns="http://www.w3.org/2000/svg" id="Layer_1" version="1.1">
<style type="text/css">
	.st0{fill:#E7E3DD;}
</style>
<path d="M143.1,71.6c-0.1-0.2-0.2-0.3-0.3-0.4c1.4-24.5-19-47.4-40.1-57c-3.7-1.5-7.5-2.7-11.4-3.7
	C85.1,8.9,78.7,8,72.2,7.7V0.9c-0.1-0.6-0.7-1-1.4-0.9c-0.5,0.1-0.8,0.4-0.9,0.9v6.8l0,0c-3.2,0-6.4,0-9.5,0s-6.6,0.6-9.8,1.2
	c-9.2,1.3-40.5,9.4-50.4,60.3l0,0c-0.4,0.4-0.4,1.1,0,1.5c0.4,0.4,1.1,0.4,1.6,0c0,0,0,0,0,0c14.9-13.7,24.1-6,30.8-0.4
	c2.6,2.2,4.6,3.9,6.6,3.9h0.2c3.4-0.8,6.7-2.3,9.5-4.5c6.2-4.9,13.5-8.2,21.4-9.4h3c2.5,18.8,3.4,37.9,2.7,56.9
	c-0.4,5.2-3,9.9-7.2,12.9c-2.4,1.6-5.3,2-8,1.3c-1.9-0.9-3.2-2.6-3.6-4.6c-0.1-0.6-0.6-1-1.2-1c-0.6,0.1-1,0.6-1,1.2
	c0,0.1,0,0.2,0.1,0.3c0.5,2.7,2.4,5,4.9,6.1c1,0.4,2.1,0.6,3.1,0.5c2.4-0.1,4.8-0.8,6.9-2c4.7-3.4,7.8-8.7,8.2-14.5
	c0.8-19.1-0.1-38.2-2.6-57.2c12.8,0.4,27.1,5.4,32.7,11.9c0.2,0.2,0.5,0.4,0.9,0.4c0.3,0,0.6-0.1,0.8-0.4c7.7-9.6,17.8-5.9,22.2-4.4
	L133,68c2.1,1,4,2.2,5.8,3.8c2.2,1.6,2.8,2.2,3.7,1.6C143,73,143.3,72.3,143.1,71.6z M133.9,65.6l-0.9-0.3
	c-4.2-1.6-15.3-5.5-23.8,4.1c-6.6-6.6-20.8-11.4-33.8-11.7c0-0.2,0-0.5,0-0.6c-0.1-0.6-0.6-1-1.2-1c-0.6,0.1-1,0.6-1,1.2l0,0v0.4
	h-2.8C62.3,59,54.5,62.4,48,67.5c-2.5,2.1-5.4,3.6-8.6,4.6c-1.2,0-3.2-1.6-5.3-3.3C28.1,63.6,18,55,3.2,66.9
	c10.1-46.9,39.1-54.6,48-55.8c3.1-0.5,6.3-0.9,9.4-1.1c10.1-0.6,20.2,0.3,30.1,2.7c3.7,0.9,7.4,2.1,11,3.5
	c20.1,9.2,39.5,30.6,38.7,53.8l-0.2-0.5C138.2,68,136.2,66.6,133.9,65.6z" class="st0"></path>
</svg>
